# Blender 4.4.3
# www.blender.org
mtllib textureTest.mtl
o Cube
v 1.000000 1.000000 -1.000000
v 1.000000 -1.000000 -1.000000
v 1.000000 1.000000 1.000000
v 1.000000 -1.000000 1.000000
v -1.000000 1.000000 -1.000000
v -1.000000 -1.000000 -1.000000
v -1.000000 1.000000 1.000000
v -1.000000 -1.000000 1.000000
vn -0.0000 1.0000 -0.0000
vn -0.0000 -0.0000 1.0000
vn -1.0000 -0.0000 -0.0000
vn -0.0000 -1.0000 -0.0000
vn 1.0000 -0.0000 -0.0000
vn -0.0000 -0.0000 -1.0000
vt 0.504085 0.500000
vt 0.950960 0.490699
vt 0.988164 0.994931
vt 0.499434 0.681791
vt 0.006053 0.750000
vt 0.490133 0.992249
vt 0.006053 1.000000
vt 0.083563 0.023253
vt 0.975344 0.004651
vt 0.986196 0.468578
vt 0.396703 0.256201
vt 0.007185 0.265920
vt 0.140920 0.510851
vt 0.013386 0.737598
s 0
usemtl Material
f 1/1/1 5/2/1 7/3/1 3/4/1
f 4/5/2 3/4/2 7/6/2 8/7/2
f 8/8/3 7/9/3 5/10/3 6/11/3
f 6/12/4 2/13/4 4/5/4 8/14/4
f 2/13/5 1/1/5 3/4/5 4/5/5
f 6/11/6 5/10/6 1/1/6 2/13/6
