{
	"asset":{
		"generator":"Khronos glTF Blender I/O v4.4.56",
		"version":"2.0"
	},
	"scene":0,
	"scenes":[
		{
			"name":"Scene",
			"nodes":[
				7
			]
		}
	],
	"nodes":[
		{
			"mesh":0,
			"name":"Cube.002",
			"rotation":[
				0.7071067690849304,
				-8.429348241634216e-08,
				8.429356057604309e-08,
				0.7071067690849304
			],
			"scale":[
				0.11881595849990845,
				0.11881595104932785,
				0.44999998807907104
			],
			"translation":[
				-1.8758328224066645e-12,
				0.5,
				3.575654545784346e-07
			]
		},
		{
			"children":[
				0
			],
			"name":"Tip",
			"rotation":[
				1.5893256488652696e-08,
				1.1920928955078125e-07,
				1.894623814660632e-15,
				1
			],
			"translation":[
				0,
				1,
				0
			]
		},
		{
			"mesh":1,
			"name":"Cube.001",
			"rotation":[
				0.7071067690849304,
				-3.8057729710716526e-13,
				-8.457274323133562e-14,
				0.7071067690849304
			],
			"scale":[
				0.11881595849990845,
				0.11881596595048904,
				0.45000001788139343
			],
			"translation":[
				8.526512829121202e-13,
				0.5000002384185791,
				1.1917557429796943e-07
			]
		},
		{
			"children":[
				1,
				2
			],
			"name":"Second",
			"rotation":[
				2.1855694143368964e-08,
				0,
				0,
				1
			],
			"translation":[
				0,
				1,
				0
			]
		},
		{
			"mesh":2,
			"name":"Cube",
			"rotation":[
				0.7071067690849304,
				-8.457273645507205e-14,
				-4.4660405067046063e-14,
				0.7071067690849304
			],
			"scale":[
				0.11881595849990845,
				0.11881596595048904,
				0.45000001788139343
			],
			"translation":[
				1.1368683772161603e-13,
				0.5000000596046448,
				2.979883184650589e-08
			]
		},
		{
			"children":[
				3,
				4
			],
			"name":"First"
		},
		{
			"name":"IK controller",
			"rotation":[
				0.7071067690849304,
				-7.277346867340384e-07,
				-7.277346867340384e-07,
				0.7071067690849304
			],
			"translation":[
				1.264995233940402e-17,
				3,
				0
			]
		},
		{
			"children":[
				5,
				6
			],
			"name":"Armature",
			"rotation":[
				-0.7071068286895752,
				0,
				0,
				0.7071068286895752
			]
		}
	],
	"animations":[
		{
			"channels":[
				{
					"sampler":0,
					"target":{
						"node":5,
						"path":"translation"
					}
				},
				{
					"sampler":1,
					"target":{
						"node":5,
						"path":"rotation"
					}
				},
				{
					"sampler":2,
					"target":{
						"node":5,
						"path":"scale"
					}
				},
				{
					"sampler":3,
					"target":{
						"node":3,
						"path":"translation"
					}
				},
				{
					"sampler":4,
					"target":{
						"node":3,
						"path":"rotation"
					}
				},
				{
					"sampler":5,
					"target":{
						"node":3,
						"path":"scale"
					}
				},
				{
					"sampler":6,
					"target":{
						"node":1,
						"path":"translation"
					}
				},
				{
					"sampler":7,
					"target":{
						"node":1,
						"path":"rotation"
					}
				},
				{
					"sampler":8,
					"target":{
						"node":1,
						"path":"scale"
					}
				},
				{
					"sampler":9,
					"target":{
						"node":6,
						"path":"translation"
					}
				},
				{
					"sampler":10,
					"target":{
						"node":6,
						"path":"rotation"
					}
				},
				{
					"sampler":11,
					"target":{
						"node":6,
						"path":"scale"
					}
				}
			],
			"name":"Action",
			"samplers":[
				{
					"input":10,
					"interpolation":"STEP",
					"output":11
				},
				{
					"input":12,
					"interpolation":"LINEAR",
					"output":13
				},
				{
					"input":10,
					"interpolation":"STEP",
					"output":14
				},
				{
					"input":10,
					"interpolation":"STEP",
					"output":15
				},
				{
					"input":12,
					"interpolation":"LINEAR",
					"output":16
				},
				{
					"input":10,
					"interpolation":"STEP",
					"output":17
				},
				{
					"input":10,
					"interpolation":"STEP",
					"output":18
				},
				{
					"input":12,
					"interpolation":"LINEAR",
					"output":19
				},
				{
					"input":10,
					"interpolation":"STEP",
					"output":20
				},
				{
					"input":12,
					"interpolation":"LINEAR",
					"output":21
				},
				{
					"input":10,
					"interpolation":"STEP",
					"output":22
				},
				{
					"input":10,
					"interpolation":"STEP",
					"output":23
				}
			]
		},
		{
			"channels":[
				{
					"sampler":0,
					"target":{
						"node":5,
						"path":"translation"
					}
				},
				{
					"sampler":1,
					"target":{
						"node":5,
						"path":"rotation"
					}
				},
				{
					"sampler":2,
					"target":{
						"node":5,
						"path":"scale"
					}
				},
				{
					"sampler":3,
					"target":{
						"node":3,
						"path":"translation"
					}
				},
				{
					"sampler":4,
					"target":{
						"node":3,
						"path":"rotation"
					}
				},
				{
					"sampler":5,
					"target":{
						"node":3,
						"path":"scale"
					}
				},
				{
					"sampler":6,
					"target":{
						"node":1,
						"path":"translation"
					}
				},
				{
					"sampler":7,
					"target":{
						"node":1,
						"path":"rotation"
					}
				},
				{
					"sampler":8,
					"target":{
						"node":1,
						"path":"scale"
					}
				},
				{
					"sampler":9,
					"target":{
						"node":6,
						"path":"translation"
					}
				},
				{
					"sampler":10,
					"target":{
						"node":6,
						"path":"rotation"
					}
				},
				{
					"sampler":11,
					"target":{
						"node":6,
						"path":"scale"
					}
				}
			],
			"name":"ArmatureAction",
			"samplers":[
				{
					"input":10,
					"interpolation":"STEP",
					"output":24
				},
				{
					"input":12,
					"interpolation":"LINEAR",
					"output":25
				},
				{
					"input":10,
					"interpolation":"STEP",
					"output":26
				},
				{
					"input":10,
					"interpolation":"STEP",
					"output":27
				},
				{
					"input":12,
					"interpolation":"LINEAR",
					"output":28
				},
				{
					"input":10,
					"interpolation":"STEP",
					"output":29
				},
				{
					"input":10,
					"interpolation":"STEP",
					"output":30
				},
				{
					"input":12,
					"interpolation":"LINEAR",
					"output":31
				},
				{
					"input":10,
					"interpolation":"STEP",
					"output":32
				},
				{
					"input":12,
					"interpolation":"LINEAR",
					"output":33
				},
				{
					"input":10,
					"interpolation":"STEP",
					"output":34
				},
				{
					"input":10,
					"interpolation":"STEP",
					"output":35
				}
			]
		}
	],
	"meshes":[
		{
			"name":"Cube.003",
			"primitives":[
				{
					"attributes":{
						"POSITION":0,
						"NORMAL":1,
						"TEXCOORD_0":2
					},
					"indices":3
				}
			]
		},
		{
			"name":"Cube.002",
			"primitives":[
				{
					"attributes":{
						"POSITION":4,
						"NORMAL":5,
						"TEXCOORD_0":6
					},
					"indices":3
				}
			]
		},
		{
			"name":"Cube.001",
			"primitives":[
				{
					"attributes":{
						"POSITION":7,
						"NORMAL":8,
						"TEXCOORD_0":9
					},
					"indices":3
				}
			]
		}
	],
	"skins":[
		{
			"inverseBindMatrices":36,
			"joints":[
				5,
				3,
				1,
				6
			],
			"name":"Armature"
		}
	],
	"accessors":[
		{
			"bufferView":0,
			"componentType":5126,
			"count":24,
			"max":[
				0.9000000357627869,
				0.9000000357627869,
				1
			],
			"min":[
				-0.9000000357627869,
				-0.9000000357627869,
				-1
			],
			"type":"VEC3"
		},
		{
			"bufferView":1,
			"componentType":5126,
			"count":24,
			"type":"VEC3"
		},
		{
			"bufferView":2,
			"componentType":5126,
			"count":24,
			"type":"VEC2"
		},
		{
			"bufferView":3,
			"componentType":5123,
			"count":36,
			"type":"SCALAR"
		},
		{
			"bufferView":4,
			"componentType":5126,
			"count":24,
			"max":[
				1.1000001430511475,
				1.1000001430511475,
				1
			],
			"min":[
				-1.1000001430511475,
				-1.1000001430511475,
				-1
			],
			"type":"VEC3"
		},
		{
			"bufferView":5,
			"componentType":5126,
			"count":24,
			"type":"VEC3"
		},
		{
			"bufferView":6,
			"componentType":5126,
			"count":24,
			"type":"VEC2"
		},
		{
			"bufferView":7,
			"componentType":5126,
			"count":24,
			"max":[
				1.399999976158142,
				1.399999976158142,
				1
			],
			"min":[
				-1.399999976158142,
				-1.399999976158142,
				-1
			],
			"type":"VEC3"
		},
		{
			"bufferView":8,
			"componentType":5126,
			"count":24,
			"type":"VEC3"
		},
		{
			"bufferView":9,
			"componentType":5126,
			"count":24,
			"type":"VEC2"
		},
		{
			"bufferView":10,
			"componentType":5126,
			"count":2,
			"max":[
				5
			],
			"min":[
				0.041666666666666664
			],
			"type":"SCALAR"
		},
		{
			"bufferView":11,
			"componentType":5126,
			"count":2,
			"type":"VEC3"
		},
		{
			"bufferView":12,
			"componentType":5126,
			"count":120,
			"max":[
				5
			],
			"min":[
				0.041666666666666664
			],
			"type":"SCALAR"
		},
		{
			"bufferView":13,
			"componentType":5126,
			"count":120,
			"type":"VEC4"
		},
		{
			"bufferView":14,
			"componentType":5126,
			"count":2,
			"type":"VEC3"
		},
		{
			"bufferView":15,
			"componentType":5126,
			"count":2,
			"type":"VEC3"
		},
		{
			"bufferView":16,
			"componentType":5126,
			"count":120,
			"type":"VEC4"
		},
		{
			"bufferView":17,
			"componentType":5126,
			"count":2,
			"type":"VEC3"
		},
		{
			"bufferView":18,
			"componentType":5126,
			"count":2,
			"type":"VEC3"
		},
		{
			"bufferView":19,
			"componentType":5126,
			"count":120,
			"type":"VEC4"
		},
		{
			"bufferView":20,
			"componentType":5126,
			"count":2,
			"type":"VEC3"
		},
		{
			"bufferView":21,
			"componentType":5126,
			"count":120,
			"type":"VEC3"
		},
		{
			"bufferView":22,
			"componentType":5126,
			"count":2,
			"type":"VEC4"
		},
		{
			"bufferView":23,
			"componentType":5126,
			"count":2,
			"type":"VEC3"
		},
		{
			"bufferView":24,
			"componentType":5126,
			"count":2,
			"type":"VEC3"
		},
		{
			"bufferView":25,
			"componentType":5126,
			"count":120,
			"type":"VEC4"
		},
		{
			"bufferView":26,
			"componentType":5126,
			"count":2,
			"type":"VEC3"
		},
		{
			"bufferView":27,
			"componentType":5126,
			"count":2,
			"type":"VEC3"
		},
		{
			"bufferView":28,
			"componentType":5126,
			"count":120,
			"type":"VEC4"
		},
		{
			"bufferView":29,
			"componentType":5126,
			"count":2,
			"type":"VEC3"
		},
		{
			"bufferView":30,
			"componentType":5126,
			"count":2,
			"type":"VEC3"
		},
		{
			"bufferView":31,
			"componentType":5126,
			"count":120,
			"type":"VEC4"
		},
		{
			"bufferView":32,
			"componentType":5126,
			"count":2,
			"type":"VEC3"
		},
		{
			"bufferView":33,
			"componentType":5126,
			"count":120,
			"type":"VEC3"
		},
		{
			"bufferView":34,
			"componentType":5126,
			"count":2,
			"type":"VEC4"
		},
		{
			"bufferView":35,
			"componentType":5126,
			"count":2,
			"type":"VEC3"
		},
		{
			"bufferView":36,
			"componentType":5126,
			"count":4,
			"type":"MAT4"
		}
	],
	"bufferViews":[
		{
			"buffer":0,
			"byteLength":288,
			"byteOffset":0,
			"target":34962
		},
		{
			"buffer":0,
			"byteLength":288,
			"byteOffset":288,
			"target":34962
		},
		{
			"buffer":0,
			"byteLength":192,
			"byteOffset":576,
			"target":34962
		},
		{
			"buffer":0,
			"byteLength":72,
			"byteOffset":768,
			"target":34963
		},
		{
			"buffer":0,
			"byteLength":288,
			"byteOffset":840,
			"target":34962
		},
		{
			"buffer":0,
			"byteLength":288,
			"byteOffset":1128,
			"target":34962
		},
		{
			"buffer":0,
			"byteLength":192,
			"byteOffset":1416,
			"target":34962
		},
		{
			"buffer":0,
			"byteLength":288,
			"byteOffset":1608,
			"target":34962
		},
		{
			"buffer":0,
			"byteLength":288,
			"byteOffset":1896,
			"target":34962
		},
		{
			"buffer":0,
			"byteLength":192,
			"byteOffset":2184,
			"target":34962
		},
		{
			"buffer":0,
			"byteLength":8,
			"byteOffset":2376
		},
		{
			"buffer":0,
			"byteLength":24,
			"byteOffset":2384
		},
		{
			"buffer":0,
			"byteLength":480,
			"byteOffset":2408
		},
		{
			"buffer":0,
			"byteLength":1920,
			"byteOffset":2888
		},
		{
			"buffer":0,
			"byteLength":24,
			"byteOffset":4808
		},
		{
			"buffer":0,
			"byteLength":24,
			"byteOffset":4832
		},
		{
			"buffer":0,
			"byteLength":1920,
			"byteOffset":4856
		},
		{
			"buffer":0,
			"byteLength":24,
			"byteOffset":6776
		},
		{
			"buffer":0,
			"byteLength":24,
			"byteOffset":6800
		},
		{
			"buffer":0,
			"byteLength":1920,
			"byteOffset":6824
		},
		{
			"buffer":0,
			"byteLength":24,
			"byteOffset":8744
		},
		{
			"buffer":0,
			"byteLength":1440,
			"byteOffset":8768
		},
		{
			"buffer":0,
			"byteLength":32,
			"byteOffset":10208
		},
		{
			"buffer":0,
			"byteLength":24,
			"byteOffset":10240
		},
		{
			"buffer":0,
			"byteLength":24,
			"byteOffset":10264
		},
		{
			"buffer":0,
			"byteLength":1920,
			"byteOffset":10288
		},
		{
			"buffer":0,
			"byteLength":24,
			"byteOffset":12208
		},
		{
			"buffer":0,
			"byteLength":24,
			"byteOffset":12232
		},
		{
			"buffer":0,
			"byteLength":1920,
			"byteOffset":12256
		},
		{
			"buffer":0,
			"byteLength":24,
			"byteOffset":14176
		},
		{
			"buffer":0,
			"byteLength":24,
			"byteOffset":14200
		},
		{
			"buffer":0,
			"byteLength":1920,
			"byteOffset":14224
		},
		{
			"buffer":0,
			"byteLength":24,
			"byteOffset":16144
		},
		{
			"buffer":0,
			"byteLength":1440,
			"byteOffset":16168
		},
		{
			"buffer":0,
			"byteLength":32,
			"byteOffset":17608
		},
		{
			"buffer":0,
			"byteLength":24,
			"byteOffset":17640
		},
		{
			"buffer":0,
			"byteLength":256,
			"byteOffset":17664
		}
	],
	"buffers":[
		{
			"byteLength":17920,
			"uri":"simpleAnimatedModel.bin"
		}
	]
}
