# Blender 4.4.3
# www.blender.org
mtllib test.mtl
o Cube
v 0.571636 1.000000 -0.571636
v 1.000000 -1.000000 -1.000000
v 0.364494 1.207142 0.571636
v 1.000000 -1.000000 1.000000
v -0.571636 1.000000 -0.571636
v -1.000000 -1.000000 -1.000000
v -0.364494 1.207142 0.571636
v -1.000000 -1.000000 1.000000
v 1.000000 1.000000 1.000000
v -1.000000 1.000000 1.000000
v 1.000000 1.000000 -1.000000
v -1.000000 1.000000 -1.000000
v 0.384375 2.001081 0.384375
v -0.384375 2.001081 0.384375
v 0.384375 2.001081 -0.384375
v -0.384375 2.001081 -0.384375
v 0.364494 1.793939 0.571636
v -0.364494 1.793939 0.571636
v 0.571636 2.001081 -0.571636
v -0.571636 2.001081 -0.571636
v 0.384375 2.518695 0.384375
v -0.384375 2.518695 0.384375
v 0.384375 2.518695 -0.384375
v -0.384375 2.518695 -0.384375
v 0.571636 1.000000 0.571636
v -0.571636 1.000000 0.571636
v 0.571636 2.001081 0.571636
v -0.571636 2.001081 0.571636
v 0.364494 1.207142 1.219137
v -0.364494 1.207142 1.219137
v 0.364494 1.793939 1.219137
v -0.364494 1.793939 1.219137
vn 1.0000 -0.0000 -0.0000
vn -0.0000 -0.0000 1.0000
vn -1.0000 -0.0000 -0.0000
vn -0.0000 -1.0000 -0.0000
vn -0.0000 -0.0000 -1.0000
vn -0.0000 1.0000 -0.0000
vt 0.678545 0.553545
vt 0.678545 0.696455
vt 0.625000 0.750000
vt 0.375000 1.000000
vt 0.375000 0.750000
vt 0.625000 0.000000
vt 0.375000 0.250000
vt 0.375000 0.000000
vt 0.375000 0.500000
vt 0.125000 0.750000
vt 0.125000 0.500000
vt 0.625000 0.500000
vt 0.625000 0.250000
vt 0.821455 0.696455
vt 0.821455 0.553545
vt 0.875000 0.750000
vt 0.875000 0.500000
vt 0.798047 0.576953
vt 0.701953 0.576953
vt 0.704438 0.696455
vt 0.795562 0.696455
vt 0.798047 0.673047
vt 0.701953 0.673047
vt 0.704438 0.696455
vt 0.795562 0.696455
vt 0.625000 1.000000
s 0
usemtl Material
f 1/1/1 27/2/1 25/2/1
f 9/3/2 8/4/2 4/5/2
f 10/6/3 6/7/3 8/8/3
f 2/9/4 8/10/4 6/11/4
f 11/12/1 4/5/1 2/9/1
f 12/13/5 2/9/5 6/7/5
f 26/14/6 9/3/6 25/2/6
f 25/2/6 11/12/6 1/1/6
f 5/15/6 10/16/6 26/14/6
f 1/1/6 12/17/6 5/15/6
f 16/18/5 23/19/5 15/19/5
f 26/14/3 20/15/3 5/15/3
f 3/20/4 30/21/4 7/21/4
f 5/15/5 19/1/5 1/1/5
f 14/22/6 27/2/6 13/23/6
f 13/23/6 19/1/6 15/19/6
f 16/18/6 28/14/6 14/22/6
f 15/19/6 20/15/6 16/18/6
f 24/18/6 21/23/6 23/19/6
f 15/19/1 21/23/1 13/23/1
f 14/22/3 24/18/3 16/18/3
f 13/23/2 22/22/2 14/22/2
f 7/21/2 25/2/2 3/20/2
f 17/24/2 28/14/2 18/25/2
f 3/20/2 27/2/2 17/24/2
f 7/21/2 28/14/2 26/14/2
f 29/20/2 32/25/2 30/21/2
f 7/21/3 32/25/3 18/25/3
f 18/25/6 31/24/6 17/24/6
f 17/24/1 29/20/1 3/20/1
f 1/1/1 19/1/1 27/2/1
f 9/3/2 10/26/2 8/4/2
f 10/6/3 12/13/3 6/7/3
f 2/9/4 4/5/4 8/10/4
f 11/12/1 9/3/1 4/5/1
f 12/13/5 11/12/5 2/9/5
f 26/14/6 10/16/6 9/3/6
f 25/2/6 9/3/6 11/12/6
f 5/15/6 12/17/6 10/16/6
f 1/1/6 11/12/6 12/17/6
f 16/18/5 24/18/5 23/19/5
f 26/14/3 28/14/3 20/15/3
f 3/20/4 29/20/4 30/21/4
f 5/15/5 20/15/5 19/1/5
f 14/22/6 28/14/6 27/2/6
f 13/23/6 27/2/6 19/1/6
f 16/18/6 20/15/6 28/14/6
f 15/19/6 19/1/6 20/15/6
f 24/18/6 22/22/6 21/23/6
f 15/19/1 23/19/1 21/23/1
f 14/22/3 22/22/3 24/18/3
f 13/23/2 21/23/2 22/22/2
f 7/21/2 26/14/2 25/2/2
f 17/24/2 27/2/2 28/14/2
f 3/20/2 25/2/2 27/2/2
f 7/21/2 18/25/2 28/14/2
f 29/20/2 31/24/2 32/25/2
f 7/21/3 30/21/3 32/25/3
f 18/25/6 32/25/6 31/24/6
f 17/24/1 31/24/1 29/20/1
